<?xml version="1.0" encoding="UTF-8" standalone="no"?>
<!--
Quollix logo and branding asset.
Copyright (c) 2026 Christoph Baier. All rights reserved.
Use is governed by the Quollix trademark and branding policy:
https://github.com/quollix/quollix/blob/main/TRADEMARKS.md
-->
<!-- Created with Inkscape (http://www.inkscape.org/) -->

<svg
   version="1.1"
   id="svg1"
   width="950"
   height="750"
   viewBox="0 0 950 750"
   xml:space="preserve"
   xmlns="http://www.w3.org/2000/svg"
   xmlns:svg="http://www.w3.org/2000/svg"
   xmlns:rdf="http://www.w3.org/1999/02/22-rdf-syntax-ns#"
   xmlns:cc="http://creativecommons.org/ns#"
   xmlns:dc="http://purl.org/dc/elements/1.1/"><defs
     id="defs1" /><g
     id="layer3"
     style="display:inline;opacity:1"
     transform="translate(-51.523101,-124.23246)"><path
       id="path31"
       style="display:inline;opacity:1;fill:#000000;stroke-width:0"
       d="m 443.46634,127.38829 c -46.53533,-0.86647 -91.56663,37.77638 -105.10356,53.22549 -32.91284,-9.03702 -72.06494,-7.34416 -113.74169,4.4331 C 167.68394,124.03455 132.4434,117.91006 117.29883,136.5 c -15.12546,18.56646 -10.34806,68.05149 17.18164,127.44727 l -6.20899,13.81054 c -21.7728,1.62053 -25.42252,1.57038 -51.832027,8.90821 0.135616,42.16587 7.706708,58.14174 12.068359,65.67578 2.536386,4.38119 11.727748,18.27657 19.816408,26.25781 2.09103,42.76917 29.00555,77.49814 82.59961,102.73437 10.43408,27.2008 2.4514,55.16537 -0.30664,80.9004 l 12.01758,-7.54688 c -0.82177,23.62277 7.14435,40.05578 14.58789,56.91602 14.49753,69.60799 45.75737,149.40267 -13.99219,160.35546 -33.48117,6.80291 -47.04136,26.77015 -46.29297,38.99414 0.41801,6.82773 7.9523,14.65661 23.30078,9.81836 11.17673,11.48937 21.6383,8.64923 32.05469,4.93164 13.51603,7.4498 34.74526,6.65353 70.68164,-9.86328 -2.08003,23.96086 12.11355,22.77232 26.71094,20.95899 9.86257,8.94608 19.97532,6.04044 29.83789,3.55664 38.83098,16.65972 111.51193,-25.49909 117.84389,-38.2824 1.86954,-3.69455 5.08441,-3.53829 6.55628,-1.43443 9.38567,13.41571 19.22258,8.02788 26.52234,5.92851 4.90528,-1.41074 14.79986,12.76804 33.23418,0.55567 3.78247,-2.50582 6.05999,1.05943 9.38804,0.84993 0.70556,-0.0444 -0.87935,2.42381 -1.85919,4.64248 -9.17034,18.86353 6.7074,26.42469 26.39454,22.41407 2.36429,4.07617 11.86604,11.0437 35.63086,4.23437 21.30804,12.97333 55.2533,3.13912 73.55859,1.64453 -14.17612,11.81701 -27.85844,23.48897 -23.83594,29.99805 L 810.62109,859.40039 C 1014.8595,857.07312 1048.6312,732.27159 896.50781,666.25781 874.26172,585.28422 832.92512,518.12205 759.25391,474.34961 L 714.87305,250.38672 520.9082,229.83984 475.29492,243.81055 C 501.36977,167.34413 467.19771,127.83016 443.46634,127.38829 Z M 125.48438,292.99023 C 115.60893,313.66778 113.6207,335.58966 108.94141,356.4082 96.103404,339.11697 94.674464,318.35993 93.205078,298.41602 Z m 210.97656,420.45508 32.60351,17.76953 c -4.03945,15.47905 -11.77015,39.64621 -20.71495,45.79389 -12.51221,8.59953 -40.35989,15.19551 -47.78895,17.44244 14.75175,-24.48842 31.92368,-52.65681 35.90039,-81.00586 z" /></g><g
     id="layer1"
     style="display:inline;opacity:1"
     transform="translate(-51.523101,-124.23246)"><path
       style="opacity:1;fill:#a05a2c;stroke:none;stroke-width:1;stroke-dasharray:none"
       d="m 354.38924,782.52333 c 19.9368,-15.98284 41.36419,-96.68575 51.86691,-168.04371 30.4899,-117.4818 78.90356,-163.26855 135.6104,-175.88258 63.23495,65.89025 60.00573,135.47296 4.93129,207.93595 -3.25263,18.39024 -6.84296,36.44278 -13.1501,51.77851 l -14.79386,-22.19079 c 0.83584,24.8004 -2.62693,47.45149 -21.36892,62.46297 l -7.39693,-9.04069 c -9.38323,29.3322 -52.19211,103.23972 -139.09083,105.24033 -5.74093,1.16472 27.26931,-7.20356 32.99903,-17.44145 8.22103,-14.68935 -9.1089,-15.91412 -14.75614,-11.00843 0.51916,-12.32886 -18.56448,-8.23025 -22.85805,-6.43171 -0.27437,-4.87071 -0.0605,-9.33576 -6.73529,-9.66874 4.21291,-2.52095 9.02345,-3.74648 14.74249,-7.70966 z"
       id="path1" /><path
       style="display:inline;opacity:1;fill:#a05a2c;stroke:none;stroke-width:0;stroke-dasharray:none;stroke-opacity:1"
       d="m 890.62798,755.47855 c 8.615,-17.52846 15.59209,-55.60545 11.83895,-75.45391 88.91209,26.35288 148.92787,157.68956 -75.485,169.95451 -32.20292,1.76 -133.61753,4.42528 -176.0751,15.73474 29.4401,-34.89757 95.35168,-61.66235 174.12199,-70.61629 65.99836,-18.92809 84.93184,-34.00951 96.01048,-48.96078 5.77,-7.78692 -13.71343,7.33023 -30.41132,9.34173 z"
       id="path18" /><path
       style="display:inline;opacity:1;fill:#a05a2c;stroke:none;stroke-width:0;stroke-dasharray:none;stroke-opacity:1"
       d="m 764.18542,485.85521 c 72.92324,60.02226 132.84653,134.71969 117.11807,243.27684 l -21.36891,-24.2455 c 8.47839,20.66487 9.84741,37.6735 -0.82188,48.491 l -11.0954,-23.83456 c 2.45982,19.42754 -0.96842,31.23523 -7.80787,38.62842 -9.38022,5.00856 -22.98704,-2.66269 -37.80654,-13.97198 3.66918,9.815 7.9478,19.19469 15.41027,26.30019 -41.97231,10.9863 -84.57764,22.53072 -120.20012,36.16278 -37.48883,18.56423 -72.03792,22.94043 -94.82902,18.77319 -2.01136,-0.59055 41.74632,-15.13962 43.31222,-22.16274 2.20787,-9.90234 0.11856,-12.05995 -18.50514,-10.42011 2.5892,-11.40042 -14.7264,-10.18177 -28.62289,-5.97173 4.83299,-7.75644 -1.62163,-11.65306 -0.13997,-11.6139 8.17989,-0.34194 16.00411,-2.55784 50.91021,5.91697 15.3242,0.97429 30.62931,2.11403 46.64177,-2.87658 -82.87389,-3.17329 -116.65491,-47.10892 -98.21481,-124.51501 15.43964,-18.43411 30.6679,-38.52249 46.64176,-74.58571 43.20915,-12.9383 87.37958,-22.06229 128.008,-41.71048 1.98963,-19.12026 -5.19586,-41.04169 -8.62975,-61.64109 z"
       id="path19" /><path
       style="opacity:1;fill:#a05a2c;stroke:none;stroke-width:0;stroke-dasharray:none;stroke-opacity:1"
       d="m 227.42209,601.86621 c 2.42562,4.24055 17.36211,38.80628 37.95065,58.56186 1.91915,1.8415 0.79926,-13.42042 1.7085,-10.80598 4.11837,11.84197 50.57837,55.43745 60.91649,56.98328 -18.38438,99.37321 -89.16508,119.93069 -107.17258,113.90194 9.21194,-3.14853 27.92683,-7.88796 34.28952,-16.46991 7.51508,-10.13627 -0.99455,-14.55639 -11.34863,-12.34373 -2.18429,-7.23343 -15.62414,-8.15637 -23.35206,-5.56287 1.17744,-3.1998 0.69386,-7.03323 -4.01239,-9.74058 48.01886,-12.79897 27.02874,-99.93353 9.92032,-170.57438 -0.49154,-2.02955 1.58943,-1.95037 1.10018,-3.94963 z"
       id="path20" /><path
       style="opacity:1;fill:#a05a2c;stroke:none;stroke-width:0;stroke-dasharray:none;stroke-opacity:1"
       d="m 140.77698,255.70939 c 18.34118,-25.0636 37.99259,-53.17204 72.74803,-68.19706 -27.90339,-36.06173 -62.87984,-59.14071 -77.77052,-53.31954 -40.893762,15.02401 -10.16812,96.78604 5.02249,121.5166 z"
       id="path21" /><path
       style="opacity:1;fill:#a05a2c;stroke:none;stroke-width:0;stroke-dasharray:none;stroke-opacity:1"
       d="m 458.57662,275.563 -9.73439,-2.32463 c 25.05271,-29.85594 46.22405,-101.44743 10.17026,-133.08514 -34.91168,-23.59734 -91.59792,20.93263 -137.44382,63.05562 -1.57818,-0.57051 4.37697,-9.52087 9.22588,-17.65266 -94.15298,-15.17692 -153.82387,19.22388 -187.93189,90.29739 26.6354,2.30674 50.46198,8.79069 72.06356,21.93871 10.89161,1.2974 21.63638,0.55765 31.38252,-0.43588 36.78281,-23.95088 90.49085,-26.07701 169.11692,-9.73439 z"
       id="path22" /><path
       style="opacity:1;fill:#a05a2c;stroke:none;stroke-width:0;stroke-dasharray:none;stroke-opacity:1"
       d="m 266.35868,305.20204 c 33.82652,-15.74648 74.92709,-20.92269 114.48809,-5.52099 19.30029,61.80628 -24.23951,84.19485 -53.17199,82.5153 -38.18966,-1.66427 -75.08921,-29.86313 -61.3161,-76.99431 z"
       id="path25" /><path
       style="display:inline;opacity:1;fill:#a05a2c;stroke-width:0"
       d="m 136.17934,292.99773 c 25.35684,-1.9429 43.1491,1.33818 55.35528,14.09307 15.17359,32.3838 -8.4341,63.25116 -34.72417,67.85018 -21.59913,3.762 -32.39281,-4.03473 -39.80932,-7.70035 -1.8137,-17.30258 5.50656,-46.37722 19.17821,-74.2429 z"
       id="path3" /><path
       style="display:inline;opacity:1;fill:#a05a2c;stroke-width:0"
       d="M 371.98411,658.98182 C 348.09669,639.6826 331.70694,616.1438 325.63678,590.25993 l 18.01589,6.82859 c -3.47746,-14.63093 -12.34869,-31.57067 -8.71737,-52.74005 l 12.78547,8.13621 1.4529,-37.48469 6.68331,3.48696 c 10.92497,-5.97351 5.12607,-16.00127 4.2134,-24.8445 4.90305,-8.23307 12.35492,-15.44911 13.80249,-23.68219 -29.45076,11.8535 -50.60476,16.77681 -57.24403,9.29853 38.29594,-8.32937 48.5649,-11.91709 69.73892,-31.96367 -0.88688,-1.5965 -7.75433,-2.5285 -11.76844,-3.77752 32.37425,-8.38271 51.69521,-27.33235 76.85811,-41.5528 -92.12769,75.53723 -114.43873,159.91772 -79.47332,257.01702 z"
       id="path6" /><path
       style="opacity:1;fill:#a05a2c;stroke-width:0"
       d="m 502.74461,371.45403 -18.57771,2.15061 c -4.21024,-11.45959 -16.69721,-17.25887 -25.84218,-24.84117 5.21003,-0.33007 11.29772,0.0569 15.76031,-4.38411 -9.34932,-14.00307 -23.87261,-19.39093 -42.88207,-21.80182 -6.03326,3.36212 -11.376,6.25081 -15.48347,11.53873 3.66533,0.77871 7.89929,1.4934 13.09798,1.88877 -13.3769,8.49209 -28.93139,16.66506 -25.01497,18.01426 l 12.85449,1.47318 c -12.97183,10.59017 -28.1256,17.24155 -41.47651,23.66189 22.84527,-25.28954 22.67492,-42.00463 26.73325,-60.29512 20.58716,-5.52789 40.92875,-12.21423 57.67991,-24.26334 6.45515,5.02918 12.73945,10.30593 18.45176,18.30647 -3.46593,1.19179 -6.499,2.6734 -11.47786,3.48695 10.2776,7.78882 24.11294,18.75434 27.75028,28.33144 l -23.53689,4.06811 c 12.29078,6.76931 27.30889,13.71413 31.96368,22.66515 z"
       id="path7" /><path
       style="opacity:1;fill:#a05a2c;stroke-width:0"
       d="m 188.14212,375.67893 c 19.45164,-11.70428 36.91253,-7.40578 55.17608,2.92078 1.18516,-9.72709 9.19602,-14.3155 19.0908,-17.51038 -6.90676,-14.06699 -11.45118,-23.47211 -15.29116,-34.06784 -8.75434,-13.61344 -27.76188,-12.99608 -34.62019,-1.02218 -4.48134,13.35557 -12.55609,28.55253 -22.70176,40.4698 z"
       id="path8" /><path
       style="opacity:1;fill:#502d16;stroke-width:0"
       d="m 360.70717,234.59137 c -0.84748,3.98795 41.31058,-1.70759 58.82184,-20.52836 -3.47051,-3.97239 -11.53294,-2.08426 -17.46998,-2.35686 7.27936,-7.43033 16.07585,-15.73441 16.85357,-24.18856 -4.42625,-2.8932 -16.69042,3.99799 -27.02384,9.87969 6.46963,-14.97998 18.14385,-30.62003 29.7992,-42.3248 -16.4613,10.94612 -49.70838,20.26106 -60.98079,79.51889 z"
       id="path43" /><path
       style="opacity:1;fill:#502d16;stroke-width:0"
       d="m 169.23896,219.63949 c 6.87332,-6.18397 12.94336,-12.8184 18.91302,-17.22186 -8.01346,-18.43094 -19.46806,-34.51678 -34.82848,-43.66735 l 14.81952,32.54484 c -8.53684,-5.97537 -14.05957,-6.92371 -18.30647,-6.35641 3.30435,9.7172 9.40272,17.54844 16.563,24.66288 -3.9955,-0.42919 -5.29495,-2.25259 -12.74915,-0.9807 3.87379,5.48604 10.3657,10.63973 15.58856,11.0186 z"
       id="path44" /></g><g
     id="layer2"
     transform="matrix(1.0176163,0.09363191,-0.10007741,1.0876677,-41.090523,-204.42196)"
     style="display:inline;opacity:1;fill:#ffffff"><ellipse
       style="opacity:1;fill:#ffffff;stroke-width:0.909212"
       id="path2"
       cx="92.625542"
       cy="722.24933"
       rx="22.190794"
       ry="31.847898"
       transform="rotate(-39.464594)" /><ellipse
       style="fill:#ffffff;stroke-width:0.909212"
       id="path2-1"
       cx="28.357718"
       cy="757.91748"
       rx="22.190794"
       ry="31.847898"
       transform="rotate(-39.464594)" /><ellipse
       style="opacity:1;fill:#ffffff;stroke-width:0.793415"
       id="path2-1-3"
       cx="370.9769"
       cy="699.703"
       rx="19.868437"
       ry="27.086994"
       transform="matrix(0.96822946,-0.2500634,0.30808556,0.95135865,0,0)" /><ellipse
       style="opacity:1;fill:#ffffff;stroke-width:0.747633"
       id="path2-1-3-6"
       cx="256.03506"
       cy="726.47137"
       rx="17.539436"
       ry="27.244879"
       transform="matrix(0.88269677,-0.46994299,0.50297253,0.8643024,0,0)" /><ellipse
       style="display:inline;fill:#ffffff;stroke-width:0.848917"
       id="path2-1-3-6-2"
       cx="-174.49664"
       cy="920.45056"
       rx="19.342934"
       ry="31.85157"
       transform="matrix(0.47393316,-0.88056082,0.88279983,0.46974936,0,0)" /><ellipse
       style="display:inline;fill:#ffffff;stroke-width:0.888534"
       id="path2-1-3-6-5"
       cx="-72.425858"
       cy="950.31494"
       rx="20.352644"
       ry="33.1628"
       transform="matrix(0.67820139,-0.7348761,0.78099822,0.62453325,0,0)" /><ellipse
       style="display:inline;fill:#ffffff;stroke-width:0.889753"
       id="path2-1-3-6-9"
       cx="72.118439"
       cy="966.19489"
       rx="20.462305"
       ry="33.075562"
       transform="matrix(0.69820197,-0.71590084,0.77575731,0.63103138,0,0)" /><ellipse
       style="display:inline;fill:#ffffff;stroke-width:0.684841"
       id="path2-1-3-6-29"
       cx="180.78986"
       cy="962.86237"
       rx="15.735425"
       ry="25.481466"
       transform="matrix(0.69462451,-0.7193725,0.73868633,0.67404934,0,0)" /><ellipse
       style="display:inline;fill:#ffffff;stroke-width:0.674336"
       id="path2-1-3-6-7"
       cx="212.69092"
       cy="1038.2975"
       rx="15.255471"
       ry="25.482941"
       transform="matrix(0.68976275,-0.72403546,0.70211204,0.71206649,0,0)" /><ellipse
       style="display:inline;fill:#ffffff;stroke-width:0.741255"
       id="path2-1-3-6-3"
       cx="99.759476"
       cy="1053.7786"
       rx="17.062323"
       ry="27.530941"
       transform="matrix(0.70838849,-0.70582274,0.74255011,0.66979051,0,0)" /><ellipse
       style="display:inline;fill:#ffffff;stroke-width:0.923181"
       id="path2-1-3-6-32"
       cx="-24.836868"
       cy="1018.0151"
       rx="21.137939"
       ry="34.469479"
       transform="matrix(0.62705647,-0.7789738,0.78659075,0.61747469,0,0)" /><path
       style="display:inline;opacity:1;fill:#ffffff;stroke:none;stroke-width:0;stroke-dasharray:none;stroke-opacity:1"
       d="m 421.14523,698.76704 c -18.90217,-4.62411 -32.07148,-16.52954 -45.74145,-27.79907 l 3.07068,10.69239 c -29.06229,-13.80632 -52.56312,-33.4871 -70.24374,-59.3156 l 1.69242,15.15594 c -17.82793,-16.77785 -31.64448,-35.88465 -35.84062,-60.57702 -4.79633,4.13551 -6.08859,11.67575 -7.62329,18.98043 -6.38964,-13.44124 -14.55684,-24.28377 -12.05535,-50.7233 l -11.46043,6.65384 c 0.3835,-19.06386 0.0443,-38.05473 -3.64678,-57.11443 3.93411,-0.18853 6.96012,0.18859 10.74863,-1.48055 -79.79788,-17.05429 -98.27547,-51.4754 -105.67345,-81.40201 26.73448,7.02376 50.95914,3.42328 70.53354,-19.86225 -0.62243,4.6155 0.18244,6.29857 -2.47993,15.84571 -0.51024,10.06598 17.26211,17.69642 26.51164,25.77075 1.41764,0.2018 3.22876,0.21554 7.81711,-1.09799 2.26021,-2.51514 7.977,-8.00143 10.77633,-10.29627 8.07543,-6.52602 13.38639,-15.07811 10.55658,-23.57669 0.075,-4.60499 3.00884,-14.6639 16.61844,-18.04742 52.54331,45.9665 103.04508,18.13223 148.9546,-16.87505 -8.48638,0.92162 -9.09521,-0.40251 -12.75987,-0.85548 5.39039,-8.50377 15.29361,-12.23705 22.94957,-18.34588 -4.19962,0.0268 -8.59131,0.81285 -12.42499,-0.8519 5.34546,-8.14742 9.13752,-8.44682 13.57489,-12.09291 22.1469,-0.15213 35.86155,6.24049 45.14105,16.26051 -2.29969,4.78368 -8.81831,4.55034 -14.0965,5.81411 16.24267,7.49575 25.02634,14.54923 26.62763,20.27764 -9.06892,2.22906 -27.17287,5.81823 -27.03228,7.00594 2.25697,0.93646 18.58224,2.45413 19.7866,7.60183 -12.78118,6.12046 -31.76425,20.94743 -42.30724,29.21432 -19.22026,15.07085 -30.17936,22.17273 -50.61627,29.88491 4.44777,0.22221 10.30133,-0.0412 11.73483,2.29571 -22.37317,24.38799 -43.74183,28.32155 -64.99091,35.15902 7.11326,2.70407 15.79652,4.27675 52.50033,-14.34276 4.75572,1.48249 -2.72787,12.92307 -10.12918,24.29669 6.86465,10.59654 4.3658,17.09196 -0.19194,22.68561 -2.31912,1.05577 -4.93347,-0.89022 -7.53946,-2.75132 0.17018,10.62723 4.71507,35.78587 0.55779,33.38888 -3.64675,-1.82635 -7.08996,-3.82495 -11.68319,-4.85043 -0.21402,11.98608 2.03402,25.80077 10.35941,37.9886 1.9715,2.88615 2.97083,6.81935 1.9994,7.60803 -4.9904,2.50407 -11.43336,-2.00448 -17.35258,-3.98456 8.10316,23.49128 24.81183,39.89168 49.70852,57.87192 l 11.24763,13.76666 c 0.69204,14.71278 -2.4471,28.58629 -7.57817,42.02345 z"
       id="path24" /><path
       style="opacity:1;fill:#484537;stroke-width:0"
       d="m 493.34393,281.10784 103.0373,4.73149 16.1591,57.54857 -9.83154,-1.42055 -13.82048,-50.19354 -89.56497,-3.24652 z"
       id="path11" /><path
       style="display:inline;opacity:1;fill:#484537;stroke:none;stroke-width:0;stroke-dasharray:none;stroke-opacity:1"
       d="m 484.18331,261.87207 -0.15346,7.81522 123.27526,7.22718 87.55971,-30.20489 -169.54321,-1.79144 z"
       id="path23" /><path
       style="opacity:1;fill:#484537;stroke-width:0"
       d="m 530.97249,350.56338 82.28053,3.33602 13.49673,50.13243 -10.249,-2.59076 -10.57675,-40.76611 -69.40845,-3.10834 z"
       id="path12" /><path
       style="opacity:1;fill:#484537;stroke-width:0"
       d="m 630.63909,349.72515 102.11818,-37.90504 16.2535,52.03236 -103.18567,39.6059 z"
       id="path13" /><path
       style="display:inline;opacity:1;fill:#484537;stroke-width:0"
       d="M 612.20905,285.55357 712.63011,249.43488 728.39205,299.37231 627.05817,337.483 Z"
       id="path14" /><path
       style="opacity:1;fill:#484537;stroke-width:0"
       d="M 648.18563,418.75031 751.0621,378.90388 786.49597,498.21182 684.26739,541.74268 Z"
       id="path16" /><path
       style="opacity:1;fill:#000000;stroke-width:0"
       d="m 246.29851,431.96638 c 16.54052,32.65676 45.56401,9.88229 69.33807,0.83177 -7.96989,16.45617 -46.65643,34.46143 -70.35901,13.42431 -26.84074,24.52185 -42.02551,-1.81428 -47.17883,-11.61806 29.50861,26.57239 36.60123,13.16866 40.50042,-1.36323 z"
       id="path26" /><ellipse
       style="display:inline;opacity:1;fill:#000000;stroke-width:0"
       id="path4"
       cx="311.2673"
       cy="378.8696"
       transform="matrix(0.99631515,-0.08576783,0.09787278,0.99519893,0,0)"
       rx="42.203499"
       ry="34.871284" /><ellipse
       style="display:inline;opacity:1;fill:#ffffff;stroke-width:0"
       id="path9"
       cx="313.58154"
       cy="362.40704"
       transform="matrix(0.99631515,-0.08576783,0.09787277,0.99519893,0,0)"
       rx="8.8421869"
       ry="8.7525501" /><ellipse
       style="opacity:1;fill:#000000;stroke-width:0"
       id="path27"
       cx="149.41621"
       cy="375.80835"
       transform="matrix(0.99631515,-0.08576783,0.09787278,0.99519893,0,0)"
       rx="29.840858"
       ry="30.212906" /><ellipse
       style="display:inline;opacity:1;fill:#ffffff;stroke-width:0"
       id="path10"
       cx="155.74591"
       cy="363.15372"
       transform="matrix(0.99631515,-0.08576783,0.09787278,0.99519893,0,0)"
       rx="8.0996618"
       ry="8.1521606" /><path
       style="opacity:1;fill:#000000;stroke-width:0"
       d="m 322.37088,415.80778 c 22.46949,-4.4393 63.33308,2.84298 83.15149,8.0861 -16.64271,-2.02389 -50.99378,-7.73572 -81.97467,-3.37857 -5.92797,0.63433 -4.78074,-3.84163 -1.17682,-4.70753 z"
       id="path33" /><path
       style="opacity:1;fill:#000000;stroke-width:0"
       d="m 175.64966,425.90364 c -33.43927,-0.96332 -62.28319,4.28662 -86.381432,11.26075 37.296812,-7.53174 67.663222,-7.99853 86.397812,-6.62937 1.88765,0.46333 7.83835,-2.67326 -0.0164,-4.63138 z"
       id="path34" /><path
       style="opacity:1;fill:#000000;stroke-width:0"
       d="m 179.23036,440.90777 c -27.61518,-0.0736 -56.99629,14.14256 -76.3847,24.94743 21.89943,-7.16326 53.3359,-20.6509 76.80552,-21.78053 3.36232,-0.22708 6.68279,-3.49471 -0.42082,-3.1669 z"
       id="path35" /><path
       style="opacity:1;fill:#000000;stroke-width:0"
       d="m 328.27262,427.98301 c -8.35656,-1.97426 -13.00535,4.32864 -6.49221,5.19502 23.1821,2.17526 46.43757,10.95697 67.21731,16.87339 -17.98834,-8.63801 -39.30405,-18.36962 -60.7251,-22.06841 z"
       id="path36" /><path
       style="display:inline;opacity:1;fill:#ffffff;stroke-width:0"
       d="m 396.41347,221.44485 c 8.52779,-23.99827 22.94482,-52.12699 52.56959,-48.54127 23.95587,5.14346 19.96287,92.86415 -17.91929,102.07462 -3.58261,0.23016 -8.15279,1.13717 -9.78718,-0.22217 3.47675,-1.79895 8.69056,-4.17696 7.81228,-6.44096 -4.41748,-7.47628 -11.08463,-4.81902 -16.79119,-6.48872 2.59745,-2.77854 6.88013,-6.6952 4.37759,-8.86826 -10.6486,-3.18442 -11.03775,-0.47825 -16.51336,-1.61048 8.74482,-5.57429 20.00188,-9.37636 24.69954,-17.80571 -7.44739,-2.72215 -10.60802,-0.33073 -16.12014,-0.26664 4.72779,-7.64851 13.75623,-16.46872 13.76209,-23.71073 -9.93975,-0.12913 -17.72292,6.83586 -26.08993,11.88032 z"
       id="path38" /><path
       style="display:inline;opacity:1;fill:#ffffff;stroke-width:0"
       d="m 165.45557,282.24767 c -26.55148,-28.64022 -37.60555,-75.66471 -23.6842,-82.65234 13.4065,-3.885 25.23031,11.25857 36.37746,34.53769 -5.81514,-2.00421 -10.81996,-5.58322 -18.39867,-4.16005 2.56324,6.80173 10.00845,14.03222 18.66334,21.36894 -5.36286,-0.94049 -9.87375,-1.08562 -13.1422,-0.0709 3.79711,3.91686 9.78375,7.97883 16.60191,8.49635 -5.69056,6.3691 -12.15439,16.49547 -16.41764,22.48028 z"
       id="path39" /><ellipse
       style="opacity:1;fill:#ffffff;stroke-width:0"
       id="path40"
       cx="442.18762"
       cy="-84.569"
       transform="matrix(0.60766184,0.79419588,-0.57929099,0.81512082,0,0)"
       rx="5.8291755"
       ry="11.486635" /><ellipse
       style="display:inline;opacity:1;fill:#ffffff;stroke-width:0"
       id="path40-1"
       cx="458.68735"
       cy="78.188049"
       transform="matrix(0.85727938,0.51485149,-0.8183418,0.57473184,0,0)"
       rx="8.6758709"
       ry="20.332771" /><ellipse
       style="opacity:1;fill:#ffffff;stroke-width:0"
       id="path41"
       cx="-110.148"
       cy="356.64194"
       transform="matrix(0.7269157,-0.6867267,0.78133054,0.62411745,0,0)"
       rx="7.8514299"
       ry="18.848366" /><ellipse
       style="display:inline;opacity:1;fill:#ffffff;stroke-width:0"
       id="path42"
       cx="41.471741"
       cy="362.13696"
       rx="4.2459335"
       ry="12.769339"
       transform="matrix(0.8669495,-0.49839599,0.47404232,0.88050206,0,0)" /><rect
       style="opacity:1;fill:#00ff00;stroke-width:0"
       id="rect45"
       width="14.579498"
       height="12.699293"
       x="484.53873"
       y="472.30777"
       transform="matrix(0.95137641,-0.30803073,0.34691351,0.93789713,0,0)" /><rect
       style="display:inline;fill:#00ff00;stroke-width:0"
       id="rect45-3"
       width="14.579498"
       height="12.699293"
       x="484.75006"
       y="491.75092"
       transform="matrix(0.95137641,-0.30803073,0.34691351,0.93789713,0,0)" /><rect
       style="display:inline;opacity:1;fill:#00ff00;stroke-width:0"
       id="rect45-3-6"
       width="14.579498"
       height="12.699293"
       x="551.67651"
       y="486.47729"
       transform="matrix(0.95137641,-0.30803073,0.34691351,0.93789713,0,0)" /><rect
       style="display:inline;fill:#00ff00;stroke-width:0"
       id="rect45-3-6-5"
       width="14.579498"
       height="12.699293"
       x="547.88275"
       y="537.42395"
       transform="matrix(0.95137641,-0.30803073,0.34691351,0.93789713,0,0)" /><rect
       style="display:inline;opacity:1;fill:#00ff00;stroke-width:0"
       id="rect45-3-6-5-9"
       width="14.579498"
       height="12.699293"
       x="548.45166"
       y="555.58203"
       transform="matrix(0.95137641,-0.30803073,0.34691351,0.93789713,0,0)" /><rect
       style="display:inline;opacity:1;fill:#00ff00;stroke-width:0"
       id="rect45-3-6-5-9-2"
       width="14.579498"
       height="12.699293"
       x="481.21643"
       y="541.53778"
       transform="matrix(0.95137641,-0.30803073,0.34691351,0.93789713,0,0)" /><rect
       style="display:inline;opacity:1;fill:#00ff00;stroke-width:0"
       id="rect45-3-6-5-9-2-4"
       width="14.579498"
       height="12.699293"
       x="480.30408"
       y="559.84277"
       transform="matrix(0.95137641,-0.30803073,0.34691351,0.93789713,0,0)" /><rect
       style="display:inline;opacity:1;fill:#00ff00;stroke-width:0"
       id="rect45-3-6-2"
       width="14.579498"
       height="12.699293"
       x="551.66718"
       y="467.76105"
       transform="matrix(0.95137641,-0.30803073,0.34691351,0.93789713,0,0)" /><rect
       style="opacity:1;fill:#5d6c53;stroke-width:0"
       id="rect46"
       width="60.281261"
       height="10.124628"
       x="500.21558"
       y="626.84906"
       transform="matrix(0.93766438,-0.34754211,0.32567384,0.94548218,0,0)" /><rect
       style="display:inline;fill:#5d6c53;stroke-width:0"
       id="rect46-0"
       width="60.281261"
       height="10.124628"
       x="500.17178"
       y="641.96985"
       transform="matrix(0.93766438,-0.34754211,0.32567384,0.94548218,0,0)" /><rect
       style="display:inline;opacity:1;fill:#5d6c53;stroke-width:0"
       id="rect46-0-6"
       width="60.281261"
       height="10.124628"
       x="499.11606"
       y="657.1413"
       transform="matrix(0.93766438,-0.34754211,0.32567384,0.94548218,0,0)" /><rect
       style="display:inline;fill:#5d6c53;stroke-width:0"
       id="rect46-0-6-1"
       width="60.281261"
       height="10.124628"
       x="498.83261"
       y="674.81207"
       transform="matrix(0.93766438,-0.34754211,0.32567384,0.94548218,0,0)" /><rect
       style="display:inline;opacity:1;fill:#5d6c53;stroke-width:0"
       id="rect46-0-6-1-6"
       width="60.281261"
       height="10.124628"
       x="499.27023"
       y="692.0744"
       transform="matrix(0.93766438,-0.34754211,0.32567384,0.94548218,0,0)" /><rect
       style="display:inline;fill:#5d6c53;stroke-width:0"
       id="rect46-0-6-1-6-7"
       width="60.281261"
       height="10.124628"
       x="499.03702"
       y="707.97467"
       transform="matrix(0.93766438,-0.34754211,0.32567384,0.94548218,0,0)" /><rect
       style="display:inline;fill:#5d6c53;stroke-width:0"
       id="rect46-0-6-1-6-4"
       width="60.281261"
       height="10.124628"
       x="499.28201"
       y="722.6861"
       transform="matrix(0.93766438,-0.34754211,0.32567384,0.94548218,0,0)" /><rect
       style="opacity:1;fill:#5d6c53;stroke-width:0"
       id="rect47"
       width="8.3169699"
       height="106.132"
       x="583.74835"
       y="627.15295"
       transform="matrix(0.93757536,-0.34778217,0.3016734,0.95341133,0,0)" /><rect
       style="display:inline;fill:#5d6c53;stroke-width:0"
       id="rect47-0"
       width="8.3169699"
       height="106.132"
       x="500.42114"
       y="627.56232"
       transform="matrix(0.93757536,-0.34778217,0.3016734,0.95341133,0,0)" /><ellipse
       style="opacity:1;fill:#5d6c53;stroke-width:0"
       id="path47"
       cx="600.35992"
       cy="384.05588"
       transform="matrix(0.98826864,-0.15272556,0.16114394,0.98693091,0,0)"
       rx="4.4373126"
       ry="3.9618683" /><ellipse
       style="display:inline;fill:#5d6c53;stroke-width:0"
       id="path47-8"
       cx="611.32159"
       cy="381.50525"
       transform="matrix(0.98826864,-0.15272556,0.16114394,0.98693091,0,0)"
       rx="4.4373126"
       ry="3.9618683" /><ellipse
       style="display:inline;fill:#5d6c53;stroke-width:0"
       id="path47-9"
       cx="622.4718"
       cy="378.98389"
       transform="matrix(0.98826864,-0.15272556,0.16114394,0.98693091,0,0)"
       rx="4.4373126"
       ry="3.9618683" /><ellipse
       style="display:inline;fill:#5d6c53;stroke-width:0"
       id="path47-92"
       cx="613.50366"
       cy="391.51529"
       transform="matrix(0.98826864,-0.15272556,0.16114394,0.98693091,0,0)"
       rx="4.4373126"
       ry="3.9618683" /><ellipse
       style="display:inline;fill:#5d6c53;stroke-width:0"
       id="path47-5"
       cx="624.84668"
       cy="388.85013"
       transform="matrix(0.98826864,-0.15272556,0.16114394,0.98693091,0,0)"
       rx="4.4373126"
       ry="3.9618683" /><ellipse
       style="display:inline;fill:#5d6c53;stroke-width:0"
       id="path47-1"
       cx="601.84998"
       cy="394.16626"
       transform="matrix(0.98826864,-0.15272556,0.16114394,0.98693091,0,0)"
       rx="4.4373126"
       ry="3.9618683" /><ellipse
       style="display:inline;fill:#5d6c53;stroke-width:0"
       id="path47-2"
       cx="615.99231"
       cy="401.69751"
       transform="matrix(0.98826864,-0.15272556,0.16114394,0.98693091,0,0)"
       rx="4.4373126"
       ry="3.9618683" /><ellipse
       style="display:inline;fill:#5d6c53;stroke-width:0"
       id="path47-15"
       cx="673.31561"
       cy="-311.10501"
       transform="matrix(0.9998283,-0.01853026,-0.03410412,-0.99941829,0,0)"
       rx="4.4445677"
       ry="3.9557374" /><ellipse
       style="display:inline;fill:#5d6c53;stroke-width:0"
       id="path47-91"
       cx="604.55969"
       cy="404.14951"
       transform="matrix(0.98826864,-0.15272556,0.16114394,0.98693091,0,0)"
       rx="4.4373126"
       ry="3.9618683" /><ellipse
       style="display:inline;fill:#5d6c53;stroke-width:0"
       id="path47-59"
       cx="611.06158"
       cy="453.96255"
       transform="matrix(0.98826864,-0.15272556,0.16114394,0.98693091,0,0)"
       rx="4.4373126"
       ry="3.9618683" /><ellipse
       style="display:inline;opacity:1;fill:#5d6c53;stroke-width:0"
       id="path47-8-7"
       cx="622.02325"
       cy="451.41193"
       transform="matrix(0.98826864,-0.15272556,0.16114394,0.98693091,0,0)"
       rx="4.4373126"
       ry="3.9618683" /><ellipse
       style="display:inline;opacity:1;fill:#5d6c53;stroke-width:0"
       id="path47-9-7"
       cx="633.17346"
       cy="448.89056"
       transform="matrix(0.98826864,-0.15272556,0.16114394,0.98693091,0,0)"
       rx="4.4373126"
       ry="3.9618683" /><ellipse
       style="display:inline;opacity:1;fill:#5d6c53;stroke-width:0"
       id="path47-92-6"
       cx="624.20532"
       cy="461.42197"
       transform="matrix(0.98826864,-0.15272556,0.16114394,0.98693091,0,0)"
       rx="4.4373126"
       ry="3.9618683" /><ellipse
       style="display:inline;opacity:1;fill:#5d6c53;stroke-width:0"
       id="path47-5-7"
       cx="635.54834"
       cy="458.75681"
       transform="matrix(0.98826864,-0.15272556,0.16114394,0.98693091,0,0)"
       rx="4.4373126"
       ry="3.9618683" /><ellipse
       style="display:inline;opacity:1;fill:#5d6c53;stroke-width:0"
       id="path47-1-3"
       cx="612.55164"
       cy="464.07294"
       transform="matrix(0.98826864,-0.15272556,0.16114394,0.98693091,0,0)"
       rx="4.4373126"
       ry="3.9618683" /><ellipse
       style="display:inline;opacity:1;fill:#5d6c53;stroke-width:0"
       id="path47-2-6"
       cx="626.69397"
       cy="471.60419"
       transform="matrix(0.98826864,-0.15272556,0.16114394,0.98693091,0,0)"
       rx="4.4373126"
       ry="3.9618683" /><ellipse
       style="display:inline;opacity:1;fill:#5d6c53;stroke-width:0"
       id="path47-15-5"
       cx="692.84918"
       cy="-378.86505"
       transform="matrix(0.9998283,-0.01853026,-0.03410412,-0.99941829,0,0)"
       rx="4.4445677"
       ry="3.9557374" /><ellipse
       style="display:inline;opacity:1;fill:#5d6c53;stroke-width:0"
       id="path47-91-6"
       cx="615.26135"
       cy="474.05618"
       transform="matrix(0.98826864,-0.15272556,0.16114394,0.98693091,0,0)"
       rx="4.4373126"
       ry="3.9618683" /><path
       style="opacity:1;fill:#338000;stroke-width:0"
       d="m 554.72154,300.57125 13.72537,-0.0481 3.03626,12.39553 -14.08097,-0.48802 z"
       id="path48" /><path
       style="display:inline;fill:#338000;stroke-width:0"
       d="m 559.19337,318.49147 13.72537,-0.0481 3.03626,12.39553 -14.08097,-0.48802 z"
       id="path48-9" /><path
       style="display:inline;fill:#338000;stroke-width:0"
       d="m 573.1436,366.37811 13.72537,-0.0481 3.03626,12.39553 -14.08097,-0.48802 z"
       id="path48-6" /><path
       style="display:inline;opacity:1;fill:#338000;stroke-width:0"
       d="m 577.61543,384.29833 13.72537,-0.0481 3.03626,12.39553 -14.08097,-0.48802 z"
       id="path48-9-1" /><path
       style="opacity:1;fill:#502d16;stroke-width:0"
       d="m 410.68882,539.43595 c 11.27827,-0.96817 24.52842,-2.16129 32.47686,10.17609 l -10.25952,88.06949 c -27.40179,-38.41404 -22.5189,-69.94115 -22.21734,-98.24558 z"
       id="path5" /><path
       style="opacity:1;fill:#502d16;stroke-width:0"
       d="m 423.92423,490.91674 c 11.61969,1.80929 24.73777,4.48277 36.59925,8.75063 -5.46833,11.6724 -10.54866,25.16277 -13.26284,37.60118 -12.33189,-8.16434 -23.96401,-9.37069 -34.43368,-9.31486 -0.80323,-13.4586 4.14069,-25.9291 11.09727,-37.03695 z"
       id="path32" /><path
       style="opacity:1;fill:#502d16;stroke-width:0"
       d="m 466.47206,488.92574 c -13.50926,-3.33295 -25.40575,-6.79521 -37.2673,-8.84636 15.57146,-32.97617 37.5665,-66.00718 99.71923,-98.0822 16.33289,6.67329 32.45428,13.52554 43.27832,24.86028 -63.79505,17.74187 -83.88447,50.66902 -105.73025,82.06828 z"
       id="path37" /><path
       style="opacity:1;fill:#502d16;stroke-width:0"
       d="m 629.39485,559.93807 c 11.07328,-2.1512 24.70593,-7.35249 28.96768,5.06267 -8.96125,36.76597 -35.03727,70.62827 -61.67341,93.5297 l 5.69139,-36.57158 c 11.38912,-19.89733 21.6844,-40.15078 27.01434,-62.02079 z"
       id="path45" /><path
       style="opacity:1;fill:#502d16;stroke-width:0"
       d="m 636.07762,514.96915 c 11.01535,3.44077 23.07777,5.52968 30.96115,13.01415 0.18886,8.95354 -0.18913,17.05247 -1.2643,24.10029 -8.49006,-5.20897 -19.84673,-7.4849 -33.88102,-3.69516 2.88576,-10.72537 4.06265,-21.92567 4.18417,-33.41928 z"
       id="path46" /><path
       style="opacity:1;fill:#502d16;stroke-width:0"
       d="m 634.61574,504.34034 24.25711,5.6594 c -8.37554,-41.74707 -20.75892,-83.24025 -67.90782,-106.89473 l -17.74321,17.02257 c 32.33444,20.35584 50.38022,50.73909 61.39392,84.21276 z"
       id="path49" /><path
       style="opacity:1;fill:#ffffff;stroke-width:0"
       d="m 313.18731,346.29973 c 6.61003,29.04142 24.1678,45.41112 61.96542,29.65805 -14.20984,10.54659 -39.49764,16.64874 -60.03944,-2.33438 -4.65981,-13.9266 -3.04102,-24.30898 -1.92598,-27.32367 z"
       id="path50" /><path
       style="opacity:1;fill:#ffffff;stroke-width:0"
       d="m 167.43954,352.80134 c 0.24797,16.31726 3.02242,40.8162 30.99764,35.84287 -9.4656,5.36024 -22.55042,2.19882 -28.38731,-1.94782 -9.93477,-11.01606 -4.73817,-24.91562 -2.61033,-33.89505 z"
       id="path51" /><path
       style="display:inline;opacity:1;fill:#ffffff;stroke:none;stroke-width:0;stroke-dasharray:none;stroke-opacity:1"
       d="m 578.05909,704.50135 c 12.89192,-15.72639 26.04349,-31.20048 42.24573,-43.71039 4.07259,29.82029 14.98277,51.61873 30.21982,63.3865 -17.23641,2.529 -52.25118,-3.58261 -72.46555,-19.67611 z"
       id="path17" /></g><g
     id="layer4"
     transform="translate(-51.523101,-124.23246)"><path
       style="display:inline;opacity:1;fill:#de8787;fill-opacity:1;stroke-width:0"
       d="m 188.62785,374.97175 c 8.79014,-8.77259 43.2454,-10.09854 54.81379,2.77873 4.89426,6.16129 -5.28544,23.67579 -25.16513,35.70213 -2.64936,1.11384 -5.48918,1.37546 -8.55119,-0.0962 -31.7852,-23.97444 -25.94407,-33.01341 -21.09747,-38.38468 z"
       id="path29" /><path
       style="display:inline;opacity:1;fill:#de8787;fill-opacity:1;stroke-width:0"
       d="m 599.88575,832.79056 c -2.14977,-9.14053 13.83604,-22.74103 27.76055,-29.9644 15.40274,-5.51351 24.46575,4.3788 19.25369,10.80744 -5.4911,6.44122 -15.67993,12.22522 -33.58378,18.8147 -6.01924,2.21537 -11.83366,5.39797 -13.43046,0.34226 z"
       id="path54" /><path
       style="display:inline;opacity:1;fill:#de8787;fill-opacity:1;stroke-width:0"
       d="m 566.33794,830.31492 c 1.77762,4.93388 21.41244,2.19049 23.73225,-0.88388 13.57032,-16.4887 26.52992,-22.46382 37.55724,-26.66694 4.17246,-12.52757 -19.67585,-9.78795 -29.44572,-5.55006 -15.10789,6.55336 -33.77866,24.05826 -31.84377,33.10088 z"
       id="path55" /><path
       style="display:inline;opacity:1;fill:#de8787;fill-opacity:1;stroke-width:0"
       d="m 556.92457,824.83485 c -4.40836,4.92862 -19.43895,4.11967 -19.0035,-1.32582 4.28379,-24.07612 27.18252,-34.8895 60.67685,-38.23554 2.32317,2.89929 3.82747,5.84083 0.42631,11.6023 -15.3612,7.08248 -26.63325,8.61167 -42.09966,27.95906 z"
       id="path56" /><path
       style="display:inline;opacity:1;fill:#de8787;fill-opacity:1;stroke-width:0"
       d="m 471.5633,798.73326 c -1.69605,-5.55948 20.60316,-29.53147 36.28391,-40.18923 6.72636,5.40227 22.41174,11.16562 20.04159,11.74985 -30.09914,7.41924 -34.01463,22.19109 -40.15534,28.77837 -3.84453,4.12412 -14.89848,3.82946 -16.17016,-0.33899 z"
       id="path28" /><path
       style="display:inline;opacity:1;fill:#de8787;fill-opacity:1;stroke-width:0"
       d="m 548.67098,776.56408 c -6.00634,-1.50225 -13.43924,-3.50877 -19.26551,-5.95548 -26.6255,12.35921 -33.27789,26.49393 -30.79002,30.63545 2.65563,4.42077 20.05967,4.54981 22.35358,-1.14276 4.10512,-10.18727 9.71629,-16.08516 27.70195,-23.53721 z"
       id="path52" /><path
       style="display:inline;opacity:1;fill:#de8787;fill-opacity:1;stroke-width:0"
       d="m 348.38128,831.68306 c -0.89321,-8.5144 14.25925,-22.16975 21.55622,-26.37056 7.61734,-3.64133 19.00068,-3.74747 16.82506,8.8125 -1.67437,9.9376 -16.96654,14.86383 -25.10966,17.74377 -5.68062,2.00904 -12.77442,4.79268 -13.27162,-0.18571 z"
       id="path57" /><path
       style="display:inline;opacity:1;fill:#de8787;fill-opacity:1;stroke-width:0"
       d="m 317.30375,830.49169 c 1.45899,5.41617 13.25147,7.37431 22.98098,-2.29809 7.48499,-8.737 17.30299,-16.45334 29.41999,-22.54348 -1.26941,-9.60071 -11.19808,-9.29421 -21.60965,-6.73007 -15.10298,5.83012 -32.81679,21.5138 -30.79132,31.57164 z"
       id="path58" /><path
       style="display:inline;opacity:1;fill:#de8787;fill-opacity:1;stroke-width:0"
       d="m 293.4389,824.48128 c 1.23989,5.03113 10.13642,7.27021 14.84925,1.06066 13.91481,-17.55962 26.13833,-19.30259 38.53731,-26.25134 -0.88075,-3.14131 3.04112,-8.06014 -6.54074,-9.104 -10.40089,-2.01582 -50.30245,18.09661 -46.84582,34.29468 z"
       id="path59" /><path
       style="display:inline;opacity:1;fill:#de8787;fill-opacity:1;stroke-width:0"
       d="m 219.1864,818.2316 c 1.41125,5.02133 5.05313,1.64425 10.43612,-0.20267 15.94854,-5.47202 28.31751,-11.16172 28.40038,-21.15514 0.0557,-6.71511 -10.58066,-7.71589 -17.742,-3.72931 -10.05252,5.59603 -22.51519,20.03223 -21.0945,25.08712 z"
       id="path60" /><path
       style="display:inline;opacity:1;fill:#de8787;fill-opacity:1;stroke-width:0"
       d="m 188.9375,817.37498 c 0.30259,7.20196 17.51924,4.32694 21.75,-1.25001 3.74461,-4.93611 26.50932,-24.0818 33.03162,-23.95894 1.62378,-4.12693 -8.91104,-9.63101 -23.21913,-6.66606 -3.49254,2.18054 -32.28084,14.7777 -31.56249,31.87501 z"
       id="path61" /><path
       style="display:inline;opacity:1;fill:#de8787;fill-opacity:1;stroke-width:0"
       d="m 164.93751,811.49998 c 0.48125,5.47682 13.73221,4.68177 16.12499,0.49999 8.92998,-15.60665 34.72786,-24.03495 39.56249,-25.56249 1.6531,-7.73206 -2.25374,-9.09846 -4.31249,-10.06251 -15.66572,-0.56349 -53.4885,11.07264 -51.37499,35.12501 z"
       id="path62" /><ellipse
       style="display:inline;opacity:1;fill:#552200;stroke-width:0"
       id="path30"
       cx="1.3617786"
       cy="441.08563"
       transform="matrix(0.87384301,-0.48620818,0.44763104,0.89421835,0,0)"
       rx="5.1805859"
       ry="7.4341526" /><ellipse
       style="display:inline;opacity:1;fill:#552200;stroke-width:0"
       id="path30-3"
       cx="385.48172"
       cy="254.4359"
       transform="matrix(0.90020507,0.43546622,-0.46078693,0.88751079,0,0)"
       rx="5.6319165"
       ry="7.6802244" /></g></svg>
